<svg xmlns="http://www.w3.org/2000/svg" xmlns:xlink="http://www.w3.org/1999/xlink" id="Visual_Identity" viewBox="0 0 890 1143"><defs><path id="reuse-0" fill="#fcb817" stroke-width="0" d="M1226 314c7 9 31 59 30 74-1 17-12 50-18 66-17 42-61 70-105 83-45 14-94 20-141 20-19 0-37-5-56-4-22 0-42 7-64 9-14 1-30-1-44-4-24-6-46-17-70-25-25-9-52-14-77-22-19-5-37-13-57-15-3 0 3-3 5-5l11-8c11-9 21-19 30-30 15-19 31-41 52-54 17-11 37-17 55-25 20-8 42-17 63-21 35-8 70-10 105-20 14-4 29-10 42-17 16-7 30-17 45-24 18-9 37-16 55-23 19-6 42-13 62-11 14 2 28 9 41 16 9 6 30 31 36 40Z" clip-rule="evenodd"/><path id="reuse-1" fill="#5440cc" stroke-width="0" d="M1261 365c-3 0-7 3-9 5-8 4-16 10-23 16-18 18-33 41-41 64-4 12-5 24-8 36 8-18-9-47-31-45-17 2-29 19-35 34 2-2 0-7 0-9-4-9-14-13-24-12-27 3-41 32-42 54-1-1 1-7 1-9 2-7 2-14 1-20l-7-14c-15-20-39-5-46 14 1-2-1-6-1-8-4-16-20-21-36-14a75 75 0 0 0-40 61l-2-4v-10l-1-12c-1-12-3-27-17-30-3 0-7 0-9 2-3 1-5 2-6 4-3 2-5 6-7 9 1-2-6-7-7-8-8-6-20-7-30-4-7 3-13 8-17 14a88 88 0 0 0-21 40c6-14-4-32-18-39-21-10-52-10-76-7l6-2 13-4c37-10 76-37 82-75l3 9 11 19c8 10 20 20 35 21a47 47 0 0 0 37-35c3 7 1 16 9 21 9 7 21 2 29-5 19-12 27-35 28-55v6l1 10c0 11 3 22 9 31 7 12 17 20 31 12l7-6c2-3 1-8 2-11v1l1 2 4 8c5 7 15 11 24 6 5-3 9-9 12-14 11-16 13-35 12-53-2 5 1 13 3 17 3 13 8 26 18 36 4 4 11 7 17 5 11-4 16-20 19-28-1 1 2 5 3 6 5 9 16 11 25 7l10-8c18-23-4-50-22-65 10 5 18 12 28 16 25 11 58 12 87 10l8 10Z" clip-rule="evenodd"/><path id="reuse-2" d="m1149-28-16-62-82 9-35 3c-41 5-114 9-169 52-37 30-70 69-94 108-12 19-20 39-33 57-23 36-54 69-73 108-20 42-33 86-56 126h4l8-1 22-2c22-1 44 5 65 4a260 260 0 0 0 57-11l95-40c117-49 131-55 152-68 43-25 85-49 116-97 33-48 39-97 40-127 2-8 2-15 2-21a194 194 0 0 0-3-38Z" class="cls-2"/><path id="reuse-3" d="m947 1196 7-3 14-8c14-8 28-16 41-26 27-21 41-54 62-80l21-25c2-2 10-7 11-11l-3 3-7 6-25 16-39 28c-10 7-22 11-32 18-13 10-24 21-32 35-3 6-7 22-14 25l-1 10-2-3-6-8c-7-8-14-15-22-21-17-13-40-15-59-25a120 120 0 0 1-21-13c-2-2-4-5-6-5l3 2 3 3 3 3 19 25c13 16 25 34 44 46 6 4 13 8 20 10 6 2 14 3 19 7l2-8v-1Zm0 0 1-1-1 1Zm-1-70v-3l-1-5-7-14c-10-12-21-24-34-33-21-16-44-24-69-33l-60-26-31-14c-1 0-9-5-10-4l2 1 3 4 11 12 32 37c25 27 63 34 95 52 16 8 35 20 47 33l10 15 13 13-1-35Zm194-323-3 2-5 6c-6 6-10 13-13 20-11 20-15 43-25 64-32 60-110 84-137 149-5 13-11 26-10 41l2 17 4-2 9-4 23-16c24-17 44-36 64-57 23-24 52-47 68-76 25-43 23-97 23-144v-1 1Zm-206 210c-1 1-1-2-1-3l-2-5-7-17c-9-18-22-33-38-45-18-13-41-19-63-26l-78-24c-16-4-34-7-48-14a134 134 0 0 1-20-11l-3-2c5 9 15 16 21 25 14 24 20 52 45 69 15 10 33 14 49 19 26 7 53 13 78 22 23 8 38 20 54 37l12 16 4 4v-9c1-10-2-21-4-31l1-5Zm2-17 13-9c9-6 17-15 25-23 25-26 41-52 54-85 20-51 26-103 37-156 7-32 12-64 35-90-4 2-9 8-12 11l-28 33c-28 27-54 57-71 92-18 38-24 81-34 122-3 10-6 20-11 29-6 11-14 20-15 33-1 9 3 18 6 27l1 16ZM661 750l-6-7c-2 0 3 4 5 6l1 1 7 12c9 17 20 34 33 48 23 24 53 35 81 50 20 11 37 25 57 37 16 9 34 15 49 25l16 11 6 3c1 1 3 4 3 2l-6-11c-5-12-9-23-15-34v-8c3 0-3-4-5-6l-10-11c-13-11-26-19-41-25-45-20-91-34-132-61a361 361 0 0 1-43-32Zm252 182-1-9c-2-10-1-20-1-29 1-20 2-41 8-60s16-37 24-55c6-14 11-27 14-42 5-27 1-57-6-84-5-21-16-40-22-60-3-9-3-18-4-27l-1 5-2 17c-3 22-6 42-11 63-7 23-13 46-21 68-12 37-26 78-19 117 2 13 10 25 16 37 8 13 14 27 20 40l6 19h1-1Zm-63-111-2-5c-3-10-3-20-3-29 1-37 13-72 24-107 17-56 3-117-16-172-8-21-18-42-24-64-2 1-2 5-2 6l-1 21v82c0 18-4 36-10 54-10 26-23 53-23 80 0 14 5 26 9 39 6 17 12 34 20 50-9-15-23-30-29-47l-2-4-9-13c-10-14-20-28-32-40-17-16-38-27-57-39l-50-35c-20-15-40-30-49-53-2 6 2 11 5 18l20 39c17 30 41 55 62 82 10 13 17 28 28 40 10 12 23 23 37 31 18 11 40 12 57 23l20 14a301 301 0 0 0 11 5l6 9 10 15 2 3-2-3Zm-73-145 3-5c3-6 6-12 7-18 6-23-5-48-10-70-16-73-101-112-118-184l-1 4-2 13c-3 22-1 43 8 63 20 45 47 87 70 131 8 14 12 30 20 44l26 40-3-18Z" class="cls-2"/></defs><defs><clipPath id="clippath"><use xlink:href="#reuse-0" stroke-width="0" clip-rule="evenodd"/></clipPath><clipPath id="clippath-1"><use xlink:href="#reuse-1" stroke-width="0" clip-rule="evenodd"/></clipPath><clipPath id="clippath-2"><use xlink:href="#reuse-2" class="cls-2"/></clipPath><clipPath id="clippath-3"><use xlink:href="#reuse-3" class="cls-2"/></clipPath><style>.cls-2{clip-rule:evenodd}.cls-10,.cls-2,.cls-5,.cls-6,.cls-7,.cls-8,.cls-9{stroke-width:0}.cls-6{fill:#fcb817}.cls-12,.cls-2{fill:#044928}.cls-5{fill:#5440cc}.cls-10,.cls-12,.cls-5,.cls-6,.cls-7,.cls-8,.cls-9{fill-rule:evenodd}.cls-7{fill:#fff}.cls-8{fill:#f2ba38}.cls-9{fill:#f2720f}.cls-10{fill:#f9e2d2}</style></defs><use xlink:href="#reuse-0" fill-rule="evenodd"/><g clip-path="url(#clippath)"><use xlink:href="#reuse-1" fill-rule="evenodd"/><g clip-path="url(#clippath-1)"><path d="M1273 356c-11 1-20 5-31 8s-24 5-33 14c-17 15-20 40-45 46-13 4-24-3-37-1-11 2-17 14-28 16-13 3-23-6-36-4-9 1-16 7-25 8-6 0-12-5-18-3-7 2-11 9-20 9-13 1-24-10-37-9-10 1-19 13-26 19l-8 5c-3 0-7-5-8-7-6-6-12-12-21-14-11-3-16 9-25 11-8 1-16-6-25-5-12 1-21 11-34 14-13 2-25-4-38-3-18 2-36 13-52 20-10 4-29 5-35-6-4-6 3-13 9-17 13-8 30-9 45-9 11 1 21 3 32 2l25-3c8 0 16 4 24 3 6-1 9-7 16-7 12-1 24 5 36 3 3 0 5-3 7-5 3-3 7-4 11-4 8-1 17 0 24 4 4 2 11 9 16 8 4-1 7-7 10-10 4-5 10-6 16-7 13-2 23 6 36 6 7 0 10-5 16-6 8-1 16 4 24 3 11-1 21-7 31-9 11-2 19 3 29 3 12-1 23-9 34-12s23 3 34-2c20-8 27-30 41-45 10-9 23-11 36-15s27-11 41-15c8-3 19-8 28-7l-39 23Z" class="cls-5"/></g><path d="M975 296c8 8 12 21 21 31 14 15 33 27 44 45 5 7 13 30-2 33-11 3-18-9-22-16-1-2-4-8-7-8-2 0-3 5-4 6-2 6-6 17-15 14-4-2-6-8-8-12-3-11-4-22-8-32-2-5-6-12-13-12s-11 6-13 12c-5 11-2 24-9 35-4 7-13 14-21 11-12-5-11-19-16-28-5-8-17-11-20-20-4-9 1-20 5-29 11-21 28-37 49-51l39 21Zm-118 40 2 3a126 126 0 0 1 16 22c7 12 10 24 6 38-2 6-6 13-14 15-28 6-49-28-48-50 1-12 8-24 14-35l24 7Zm36 240c2-1-1-3-2-4-1-3-3-5-3-8-3-9-4-18-2-27 4-15 20-25 22-40 0-5-1-15-7-16-7-1-17 8-21 13-2 2-5 6-9 6s-7-6-10-8c-10-8-20-8-28 3-13 18-13 41-23 60-4 9-12 19-24 19l107 2Z" class="cls-6"/></g><use xlink:href="#reuse-2" class="cls-12"/><g clip-path="url(#clippath-2)"><path d="m867-42 3 2 5 3 15 6 48 18c27 9 55 15 82 22l20 7 5 3-6 5-19 16c-8 7-17 21-29 24-5 1-11-2-15-4l-27-10c-25-11-50-22-74-35-16-9-31-20-48-26l40-31Z" class="cls-9"/><path d="m817 1 4 2 8 5 41 20 72 36c9 4 25 9 31 17 5 7-12 18-16 21-8 6-17 16-28 18s-27-5-37-9l-49-23c-13-7-25-15-35-25-10-9-17-19-27-27l36-35Z" class="cls-10"/><path d="m774 44 4 7a486 486 0 0 0 94 66l25 11c4 2 8 4 9 8 0 5-6 11-9 14-4 4-9 9-14 10-6 1-13-2-19-4-15-4-29-11-42-19l-19-13c-22-12-44-21-68-29l39-51Z" class="cls-8"/><path d="M727 102c1 2 6 4 8 5l24 11c27 10 52 25 78 37 8 3 29 9 32 18 1 2-2 4-3 5l-15 12c-6 5-14 16-23 19-5 1-10-1-14-3l-33-17c-25-15-45-26-74-30l20-57Z" class="cls-9"/><path d="m689 170 4 2 10 5 28 12 64 22c8 4 21 8 17 18-2 7-11 12-18 17l-13 10c-1 1-3 4-5 4-3 0-7-3-9-4l-22-13c-24-15-46-31-73-37l16-36Z" class="cls-10"/><path d="M653 218c6 6 17 9 25 13l42 18c14 5 31 11 41 21s-11 23-17 29c-1 1-7 9-9 9-4-1-7-4-10-6l-29-16c-21-12-43-21-67-27l24-41Z" class="cls-8"/><path fill="#044928" fill-rule="evenodd" stroke-width="0" d="M626 271c-1 2 5 2 7 3l13 7c17 10 35 16 54 23 4 1 19 4 21 9 1 4-10 11-12 13l-13 12-5 4-14-5-9-4-16-7c-14-7-28-14-42-18l16-37Z"/><path d="M600 327c0-2 3 1 4 1l11 4 46 18c1 1 13 5 11 7-1 3-7 4-9 4l-21 11-13 9-10 6c-13 10-46 34-53 5l-1-10 4-18 14-28 17-9Z" class="cls-6"/><path d="M1047 14c0 1 0 1 0 0l-2-1-3-1a92 92 0 0 0-12-5 492 492 0 0 0-39-8 462 462 0 0 1-80-24l-20-8 20 8a410 410 0 0 0 100 27 517 517 0 0 1 31 9l3 2 2 1Zm-59 55-2-1-4-2-4-2-23-7-9-4c-12-7-23-12-35-17l-35-16a328 328 0 0 1-41-24 83 83 0 0 1 0-1 186 186 0 0 0 41 24l35 16a479 479 0 0 1 45 21l23 8 3 1 5 2 2 1v1Z" class="cls-7"/><path d="M984 72v1l-1-1-4-2-3-2-5-2-8-3-18-7-18-9c-13-7-26-15-40-21l-27-10a63 63 0 0 1-16-8L826-8l18 15a59 59 0 0 0 16 9c9 3 19 5 27 9 16 7 31 17 46 25l12 5 18 7 8 3 5 3 4 2 4 2Zm-5 5 1 1h-1l-4-3a219 219 0 0 0-50-23l-11-5-17-11a124 124 0 0 0-18-9L837 7l-6-3-13-7 13 7 6 3 43 20a383 383 0 0 1 18 9l17 10a131 131 0 0 0 26 11 143 143 0 0 1 26 13 196 196 0 0 1 9 5l3 2Zm-60 48-11-4-16-7-19-7a182 182 0 0 1-26-14l-20-14-12-8a100 100 0 0 1-15-12l-22-22 23 21a161 161 0 0 0 15 13l11 8 20 13a173 173 0 0 0 26 14l19 8 16 6a126 126 0 0 0 11 5Z" class="cls-7"/><path d="m915 129-3-1-4-1-8-3-5-2-12-6-16-7-10-6a515 515 0 0 1-73-54l-25-26 25 25a236 236 0 0 0 41 34 535 535 0 0 0 43 26l15 7 12 6 5 2 9 3 3 1 3 1v1Z" class="cls-7"/><path d="m910 133 2 1-2-1-2-1-1-1-3-1-5-2-7-5-6-3c-5-2-10-3-14-6l-5-2-11-7a399 399 0 0 1-97-75l-4-5 4 5a99 99 0 0 0 19 19 571 571 0 0 0 78 55l11 7 5 3 14 6 6 3 7 4 5 3 3 1 2 1 1 1Zm-35 30s1 0 0 0h-3l-5-2-7-3-15-6a98 98 0 0 1-14-7l-19-10-21-13a121 121 0 0 0-16-9l-27-11-7-4-26-14-13-6 13 6 26 14 7 3 28 12a169 169 0 0 1 16 8l21 13 18 11a175 175 0 0 0 14 7l15 6 7 3 5 1 3 1Z" class="cls-7"/><path d="m873 168-10-5-41-19-5-3c-6-4-11-8-18-11l-8-5-21-10-27-14a351 351 0 0 0 1 0l27 14 20 9 9 5 18 12 4 2 41 19a168 168 0 0 1 10 6Z" class="cls-7"/><path d="m871 170-4-2-8-6-9-4-13-6-13-3-5-2-11-6c-9-5-17-11-26-15l-15-7-6-4-28-15a308 308 0 0 0-23-11l-27-12 27 11a288 288 0 0 1 24 12l28 15 6 3 15 7 29 17a142 142 0 0 0 12 6l12 3a173 173 0 0 1 23 11l8 6 4 1 1 1h-1Zm-49 42h-2l-3-2-4-1-5-3a409 409 0 0 1-44-22l-10-5-16-5-8-3-17-7-23-11-34-18 34 17 23 11 18 7 7 3 16 6 11 4a1078 1078 0 0 0 43 23l6 2 3 2 4 1 1 1Zm0 0Zm-2 4-3-2-10-4-4-2-14-8-22-9-30-13a2954 2954 0 0 1-45-21l45 20 30 13 22 10a320 320 0 0 1 20 10l8 3 3 3c1 0 1 0 0 0Zm-2 3-4-2-18-11-34-13-8-3-29-15-44-21 44 21 30 14 8 4 33 13 18 10 5 3h-1Z" class="cls-7"/><path d="m816 222-4-2-7-5-6-3-9-4c-15-7-31-11-46-16l-11-5-38-19-55-33 55 32a465 465 0 0 0 49 24l46 16a185 185 0 0 1 15 8l8 5 3 1v1Zm-45 40-2-2-8-4-23-15-24-15a228 228 0 0 0-42-20l-41-15 41 14a314 314 0 0 1 43 20l23 15 24 15 7 4 3 3h-1Z" class="cls-7"/><path d="M769 263v1l-1-1-3-1a107 107 0 0 1-14-8l-15-11a331 331 0 0 0-55-30 2393 2393 0 0 0 56 30l15 10a244 244 0 0 0 14 9l2 1h1l1 1h-1v-1Zm-2 4-2-1a25 25 0 0 0-3-1l-5-3-6-3-20-13-13-8c-12-7-17-4-28-9-12-5-9-9-25-20-10-6-19-9-32-14 11 4 21 7 32 14 18 10 15 15 28 20 10 3 15 2 26 8l13 9 19 12 6 4a41 41 0 0 0 7 3l2 1 1 1h1-1Zm0 0Zm0 0Zm-2 3v1h-1l-1-1-3-2-4-3-6-3a189 189 0 0 0-31-15l-25-9a151 151 0 0 1-16-8l-14-8 14 8a96 96 0 0 0 13 6l29 10a403 403 0 0 1 30 15l6 4 4 2 3 2 1 1h1Zm0 1Zm-34 37-2-1-3-2a88 88 0 0 0-9-4l-20-10-27-14a295 295 0 0 0-21-11l-24-9-5-2-18-8-6-3-15-6 15 6 6 2 19 8 4 2 24 10a244 244 0 0 1 21 10l27 14 21 10a174 174 0 0 1 11 7l2 1v1-1Zm-9 0-2-1-7-4-18-8-5-2-26-14a412 412 0 0 0-47-21 736 736 0 0 0 48 21l26 13 6 3 16 7 8 4 1 1 1 1h-1Zm-15-4-15-5-21-9-17-8a131 131 0 0 1-18-10l-11-8 11 7a125 125 0 0 0 19 11l17 7 20 9a182 182 0 0 0 15 6Zm-20 39h-2l-5-3a188 188 0 0 0-18-7l-19-8-27-13-11-5-26-12 26 12 11 5 27 12a366 366 0 0 0 38 16l4 2 2 1h1-1Zm-2 2-33-13-14-6-45-21 45 20 14 6 33 14s0 1 0 0Zm-3 3-2-1-5-2a594 594 0 0 0-44-18l-52-25 53 24a663 663 0 0 0 43 18l6 2 2 2h-1Zm-4 1v1h-1l-3-2-8-3-17-6a240 240 0 0 1-16-7l-21-10a473 473 0 0 0 6 2l24 11 8 3 17 7 7 3 3 1a24 24 0 0 0 1 0Zm-3 5-2-1-5-2a440 440 0 0 0-17-7l-19-8-13-5-32-15a481 481 0 0 0 5 2l28 12 12 5 20 8a385 385 0 0 1 16 7l5 3 3 1h-1Z" class="cls-7"/><path d="M1159-32c1 0 5 3 4 4l-13 3c-15 5-28 15-40 26-33 27-60 58-95 83-29 20-42 50-67 72-15 13-33 23-48 37-33 30-62 63-97 91-40 33-83 61-124 93-27 21-60 40-83 66-9 10-18 27-4 39 16 15 46 8 64 3 59-13 114-39 171-57 59-20 126-28 178-60 76-45 169-153 200-232 11-30 12-60 16-92 4-37 10-69 6-107l-68 31Z" class="cls-5"/></g><use xlink:href="#reuse-3" class="cls-12"/><g clip-path="url(#clippath-3)"><path d="m783 706-8-19-3-20 2-27 1-7c-1-11-2-22-5-34a243 243 0 0 0-26-63c-6-10-13-20-21-29l-35-39-13-19c-5-8-9-18-11-27l-9-44 1-1h1c3 15 5 30 9 44 2 10 6 19 11 27l13 18 35 40a237 237 0 0 1 37 60 237 237 0 0 1 15 67v7l-3 27a75 75 0 0 0 11 38l-1 2-1-1Z" class="cls-7"/><path d="M779 679v-13l2-17 1-8-1-25a235 235 0 0 0-9-38l-8-18-12-30-6-13 1-1h1l5 13 13 30 8 18 4 12a225 225 0 0 1 6 52v8c-1 6-3 11-3 17v13h-2Zm-10 3-2-8-1-11-3-33a190 190 0 0 0-10-48l-14-37c-5-10-11-18-17-26l-32-34a160 160 0 0 1-29-46c-4-8-5-17-6-26v-41l1 1 1 40c1 9 2 17 6 26a156 156 0 0 0 29 45l32 33c7 8 13 17 17 27a320 320 0 0 1 24 86l2 33 2 11 1 7v1h-1Z" class="cls-7"/><path d="m753 667-1-12-4-28c-2-15-3-28-7-42a127 127 0 0 0-22-48l-19-23-18-23c-8-12-15-25-21-38a372 372 0 0 1-13-42 374 374 0 0 0 36 79l18 23 19 23a139 139 0 0 1 23 48l6 42 4 29a264 264 0 0 1 0 13l-1-1Z" class="cls-7"/><path d="m733 622-1-10a235 235 0 0 0-6-36l-10-19c-5-9-12-17-18-25a297 297 0 0 1-32-52 323 323 0 0 1-13-37 333 333 0 0 0 35 70l13 18 14 18a102 102 0 0 1 16 41c2 7 2 15 3 22l1 8v3h-2v-1Zm0 0Zm108 189 1-6-3-14a165 165 0 0 1 1-44c5-30 16-58 22-88 3-12 5-25 5-37 0-19-3-38-7-57-4-21-11-42-17-63a794 794 0 0 1-16-65c4 21 11 43 18 64s13 42 18 64c4 19 7 38 7 57 0 13-2 25-5 38-6 29-18 57-23 87a197 197 0 0 0-2 44c1 3 3 9 3 14v7h-1l-1-1Z" class="cls-7"/><path d="M832 796h1l-1 1-1-1-1-1v-7l-1-16a107 107 0 0 1 1-24l5-21 16-54 5-24c2-13 3-27 2-40a269 269 0 0 0-11-60c-3-17-7-33-12-49l-19-72h1l21 72a1540 1540 0 0 1 19 78l4 31a165 165 0 0 1-8 64l-16 54-5 21a85 85 0 0 0-2 24l2 16v8Z" class="cls-7"/><path d="M817 759c0-7 2-14 4-21l10-29a246 246 0 0 0 13-101 391 391 0 0 0-11-81 1149 1149 0 0 0 14 81 295 295 0 0 1-14 101l-10 30c-2 6-4 13-4 20h-2Z" class="cls-7"/><path d="m803 738 1-2 2-4 4-8 3-7a328 328 0 0 0 15-52 222 222 0 0 0 0-73 336 336 0 0 0-16-72l1 1a419 419 0 0 1 20 100 220 220 0 0 1-22 104l-3 7-3 5v1l-1 1-1-1Z" class="cls-7"/><path d="M799 725a201 201 0 0 0 18-69 319 319 0 0 0 0-72h1a301 301 0 0 1-4 101 200 200 0 0 1-15 41v-1Z" class="cls-7"/><path d="m794 713-1 1-1-1 1-2 3-6a150 150 0 0 0 10-42 270 270 0 0 0 1-53l1-1h1a481 481 0 0 1-1 55 184 184 0 0 1-10 41l-3 6-1 2Zm0 0Zm96 159v-2l2-7a256 256 0 0 1 6-20l12-35 9-24 11-37 5-26c1-17 0-34-2-51-4-26-11-51-18-76l1-1 1 1c7 24 14 50 18 76a241 241 0 0 1 2 52c0 8-2 17-4 26l-12 37-8 23-13 35a229 229 0 0 0-6 21l-2 6-1 2v1l-1 1-1-1 1-1Zm1 0Z" class="cls-7"/><path d="m883 857-2 3c-1 0-1-1 1-3v-1l1-3 2-5 3-13a219 219 0 0 1 6-16l15-40a247 247 0 0 0 13-82 319 319 0 0 0-8-82h1a364 364 0 0 1 9 103 272 272 0 0 1-16 72l-16 40-2 6-4 12-1 6-2 3Z" class="cls-7"/><path d="m873 844 1-3 2-5 2-4 4-11c5-16 12-31 18-46a290 290 0 0 0 14-54 238 238 0 0 0 0-68 390 390 0 0 0-5-34 392 392 0 0 1 10 68 227 227 0 0 1-17 89l-19 46-4 10-1 5-3 5v2h-2Z" class="cls-7"/><path d="M869 827c3-3 4-6 6-10l9-26a284 284 0 0 0 19-95 406 406 0 0 0 1-42 386 386 0 0 1-6 97c-3 14-7 27-12 41l-9 26-6 10h-2v-1Z" class="cls-7"/><path d="m864 814 1-1v-1l1-1 3-6a116 116 0 0 0 5-14 318 318 0 0 0 15-59 314 314 0 0 0 6-43 241 241 0 0 1-7 60 426 426 0 0 1-22 65l-1 2h-1v-2Zm1 1Zm-1-1v1-1Zm11 54-1 1-4-2-8-5a304 304 0 0 0-41-17 665 665 0 0 1-103-47 305 305 0 0 1-52-42l-19-20v-1h1l19 20 14 13a310 310 0 0 0 67 44 501 501 0 0 0 94 39l20 10 9 5 3 1h2l-1 1Z" class="cls-7"/><path d="m882 884-6-2-12-7-14-6-21-8-15-7-32-16-31-14a462 462 0 0 1-65-41l-13-13c-9-10-16-22-26-32v-1h1c10 10 18 22 27 32l12 13a260 260 0 0 0 66 40l30 14 32 16 14 7 21 8 14 6 13 7 5 2 1 1-1 1Z" class="cls-7"/><path d="M889 895h-4l-4-2-10-4-35-13a539 539 0 0 1-53-25l-43-25c-11-7-22-13-32-21a168 168 0 0 1-32-31l-17-24v-1h1l17 24a144 144 0 0 0 33 30c10 8 21 14 32 21l42 25a413 413 0 0 0 53 25l35 14 10 4 4 1h2l2 1 1 1-1 1-1-1Z" class="cls-7"/><path d="m897 910-3-1-4-2-2-1a538 538 0 0 0-58-24l-24-12-37-19-25-13a206 206 0 0 1-61-55l-16-24-7-10v-1h1l7 10 16 24 9 11a247 247 0 0 0 53 42l24 14 37 19a415 415 0 0 0 69 31l12 6 3 1 4 2 2 1h1l1 1-1 1-1-1Zm0 0Zm11 16-8-5-22-9-26-12-13-5-12-5-19-8a4125 4125 0 0 1-18-9l27 11a1469 1469 0 0 1 62 26l19 8 11 7v1h-1Zm23 85 1 1h-2l-1-1v-2l-2-4a96 96 0 0 0-7-11l-8-10-24-25a130 130 0 0 0-56-31l-42-12-25-8-39-14-21-8a113 113 0 0 1-20-11c-8-5-14-12-22-18l-1-1h1l23 18a71 71 0 0 0 20 10l21 7 38 15 26 8 42 12a131 131 0 0 1 56 32c9 7 17 16 24 25l8 10a98 98 0 0 1 9 15l1 3Z" class="cls-7"/><path d="m936 1034-6-12-12-16c-11-14-23-27-38-39-14-11-29-21-46-27l-60-15-14-4c-15-6-29-13-43-21l-59-40v-1h1c20 13 39 27 59 39a291 291 0 0 0 57 25c20 5 40 8 59 15 18 6 34 16 48 27 14 12 27 26 37 40l12 17 6 12v1l-1-1Z" class="cls-7"/><path d="M940 1051c-11-25-28-46-50-64a247 247 0 0 0-98-49l-27-8-22-8-25-16c-17-15-32-32-50-45v-1h1c18 13 33 30 51 44a125 125 0 0 0 46 24l27 7 27 8c26 10 51 24 72 42a179 179 0 0 1 49 66h-1Z" class="cls-7"/><path d="M942 1067v1h-1l-1-1-1-3a94 94 0 0 0-3-7 198 198 0 0 0-12-22 147 147 0 0 0-55-49 456 456 0 0 0-40-21l-55-20c-12-5-24-10-35-17-9-6-17-13-24-20-17-17-32-36-50-52v-1h1c19 15 33 35 51 51 7 7 15 14 23 19 11 7 23 13 35 18l55 20 16 8a444 444 0 0 1 55 35 148 148 0 0 1 37 51l1 3 2 4 1 2v1Zm-1 0Zm1 0Z" class="cls-7"/><path d="m919 1053-8-13-4-5a165 165 0 0 0-43-35c-18-11-37-19-56-27l-37-16-23-13c-10-7-19-15-27-24-19-20-35-44-54-64v-1h1c20 20 35 44 55 64a149 149 0 0 0 49 35l38 17a381 381 0 0 1 78 43 169 169 0 0 1 24 25l9 13v1h-2Z" class="cls-7"/><path d="m812 990-13-9c-7-4-14-6-22-9a231 231 0 0 1-40-23c-5-3-10-7-14-12l-16-21-18-26a773 773 0 0 1-11-19l10 13 21 30 17 21c3 5 8 9 13 12a197 197 0 0 0 39 23l22 10c5 2 9 5 13 9v2l-1-1Zm130 127-6-8-12-12-17-17a73 73 0 0 0-28-17l-38-13-16-7-24-12-20-10a169 169 0 0 1-18-10l-36-21v-1h1l36 21a420 420 0 0 0 18 9l21 10 23 11 16 8 38 13 16 7 13 11 16 17 14 14 4 7v1l-1-1Z" class="cls-7"/><path d="m946 1129-2-3-4-4a527 527 0 0 0-17-15l-21-19a95 95 0 0 0-25-16l-16-5a339 339 0 0 1-105-56l-27-22a216 216 0 0 0-8-6h1l8 5 28 22a438 438 0 0 0 104 54l16 6a78 78 0 0 1 26 16l20 19a583 583 0 0 1 17 16l5 5 2 3-1 1-1-1Z" class="cls-7"/><path d="m943 1137-2-1-2-4a158 158 0 0 0-10-9l-24-19a177 177 0 0 0-29-18c-17-8-36-12-52-21a284 284 0 0 1-42-29 806 806 0 0 1 1-2 384 384 0 0 0 42 28c17 9 35 14 52 22a117 117 0 0 1 29 18c9 6 16 13 24 20a162 162 0 0 1 10 9l2 3 1 1 1 1-2 1Z" class="cls-7"/><path d="m946 1156-2-2-3-3-7-9-3-3-23-22a137 137 0 0 0-32-23l-41-16a150 150 0 0 1-56-37l-29-30a493 493 0 0 0 2-2l29 31 28 22c11 7 22 12 34 16l34 14a121 121 0 0 1 33 23l22 23 3 3 7 8 3 4 1 1 1 1-1 1Z" class="cls-7"/></g><path d="m929 1306 4-19a322 322 0 0 0 4-54l3-67a476 476 0 0 0-2-56c-1-15-4-29-6-43l-6-51-3-20a502 502 0 0 0-45-110c-24-44-56-86-80-131-16-31-29-63-32-98-1-3 2-6 5-6 3-1 6 2 7 5 5 32 18 62 35 91 25 45 58 86 83 128a486 486 0 0 1 48 116l4 23 5 50 5 44a309 309 0 0 1 0 59l-6 67a797 797 0 0 1-6 55l-5 20c0 4-4 6-7 5-4-1-6-4-5-8Z" class="cls-9"/></svg>