<svg xmlns="http://www.w3.org/2000/svg" xmlns:xlink="http://www.w3.org/1999/xlink" id="Visual_Identity" viewBox="0 0 890 1143"><defs><path id="reuse-0" d="m915 167-27-53a30070 30070 0 0 0-92 39c-33 14-92 34-128 85-24 36-43 78-55 119-5 20-8 40-14 59-12 38-31 75-38 114-8 43-9 85-19 127l3-1 6-3 17-7c18-6 37-5 55-12a210 210 0 0 0 44-22l70-58c85-71 96-80 110-96 30-32 59-64 75-114 16-51 11-97 6-124l-2-19-6-22-5-12Z" class="cls-2"/><path id="reuse-1" d="M846 50h-1 1Zm-49 15h-2l-3 2-8 8c-7 9-13 19-17 29-7 18-8 35-10 53l-7 46-4 24-1 8 1-2 2-3 6-10 20-29c15-22 12-49 18-74 3-13 8-28 15-39l8-10 7-11-25 8ZM533-2l2 2 6 2 16 5c16 3 33 1 49 4 49 9 81 57 131 63 11 1 21 2 31-2l12-5-2-2-5-5-16-13c-16-12-33-22-52-31-21-11-43-26-66-31-36-8-73 4-106 13l-1 1 1-1Zm188 98-2 1a75 75 0 0 0-14 10 91 91 0 0 0-25 35c-5 15-5 32-6 48-1 19-2 38-1 58 0 11 1 24-1 35a95 95 0 0 1-4 16l-1 2c5-5 8-14 14-19 14-14 32-25 39-45 4-11 4-24 4-37 0-19-1-38 1-57 1-17 7-29 16-44l8-11 3-3c-1-1-6 1-7 1-7 2-15 6-21 10h-3Zm-13 2-9-8c-6-5-14-8-21-12-23-11-44-17-70-19-39-3-77 3-117 6-24 1-47 5-70-6l10 6 29 13c24 13 50 25 78 29 31 5 62 0 92-1 8 0 16-1 23 1 9 2 17 6 26 4 7-1 12-6 18-9l11-4ZM588 333l-3 5 2-4 1-1 7-7c10-10 20-21 27-32 13-20 15-43 20-65 4-16 11-30 15-46 3-12 4-26 8-38l5-13 1-5 1-2c-2 0-6 5-7 6l-21 17-5 1c-1-2-3 3-4 5l-5 9c-6 11-9 21-10 33-6 34-7 68-18 102a254 254 0 0 1-14 35Zm13-142-3 2c-6 4-13 6-20 8-25 7-53 5-79 5-43 0-83 21-118 45-14 10-26 21-40 30l4-1 15-3 57-16c14-4 27-5 41-4 20 1 41 5 61-1a298 298 0 0 0 57-37c-9 9-18 22-28 28l-3 3-7 9c-8 9-16 18-22 29-8 15-12 31-17 47-4 14-10 27-15 41-6 16-13 33-27 44 4-1 7-4 11-8l24-21c18-17 31-39 46-58 7-10 16-18 23-27 6-10 11-21 14-32 4-14 1-29 5-43l6-16a216 216 0 0 0 2-8l5-7 9-9 1-2-1 2Z" class="cls-2"/><path id="reuse-2" d="m936 371 5 3 10 9c11 8 21 17 30 27 19 22 26 51 40 76l13 24 8 11-2-3-5-6-18-16-28-30c-8-6-17-12-24-19-9-10-17-21-21-34-2-5-3-20-8-23v-8l-2 2-6 6c-7 5-13 11-21 15-15 9-34 8-51 13l-17 7-2 1-5 4 2-2 3-2 3-2 19-18c13-12 25-26 42-34l18-6c5 0 11 0 16-3l1 7v1Zm0 0v1-1Zm-11 60v2l-2 4-7 10c-10 10-21 18-32 24-20 11-40 14-61 19l-52 14-27 8-9 2 1-1 3-2 11-9 31-28c24-19 56-20 85-30 14-6 31-14 43-23l10-11c3-4 8-6 12-9l-6 30Zm114 298-2-2-4-6-8-19c-5-18-5-38-11-57-18-55-78-86-91-144-2-12-5-24-3-36l5-15 2 3 7 5 17 17c17 17 30 35 44 55 16 24 36 47 45 74 14 40 6 85-1 125v1-1ZM900 524c-1-1-1 1-1 2l-2 5-8 13c-10 14-23 25-38 33-16 9-36 11-54 14l-68 10c-13 1-28 1-40 5a111 111 0 0 0-18 7l-3 1c6-7 15-11 20-18 15-18 25-42 47-52 13-7 28-8 42-10 23-3 45-4 67-9 20-4 33-11 49-24l12-12 3-3v8l-8 26v4Zm-1 15 10 9 17 23c17 25 26 49 32 78 9 46 7 91 9 138 2 28 1 55 17 80-4-2-7-8-9-11-6-10-11-21-18-31-19-27-37-55-45-87-10-35-9-72-12-108-1-8-1-18-4-26-4-10-9-19-8-30 0-8 5-15 8-22l3-13ZM642 711c-2 2-4 4-6 4l5-4h1l7-10c10-12 21-25 34-36 21-17 47-22 72-31 18-7 34-17 51-24 15-6 31-8 44-15l15-7 5-2 3-2-7 10-16 26-1 7c2 0-4 3-5 4l-10 8c-12 8-24 13-37 16-40 11-79 17-116 34a298 298 0 0 0-39 22Zm230-121-2 7c-3 8-4 17-5 25-2 17-3 34-1 51s8 34 11 50c3 12 6 25 6 37 0 24-7 49-16 71-7 16-18 31-26 48-4 7-5 15-7 22v-5l1-14-1-55-7-60c-5-33-12-69-1-101 4-11 12-20 19-30l22-31 7-15Zm-66 85-3 5c-3 7-5 16-6 24-5 31 1 62 5 93 6 50-14 100-37 143-9 18-20 34-28 51l-1-5 2-18 11-69c3-16 2-31-1-47-4-23-11-48-7-71 2-12 7-21 12-31 7-14 15-28 24-41-10 12-24 23-30 37l-2 3-10 10c-10 10-20 21-31 29-16 12-35 18-52 26l-46 23c-18 10-36 20-47 38 0-5 4-9 7-14l21-30c18-24 41-42 62-62 10-10 18-21 28-30s23-16 35-22c16-6 34-5 50-11l17-9a260 260 0 0 1 10-4l7-6 10-12 1-1-1 1Zm-80 114 2 4c1 6 3 11 3 17 2 19-10 39-17 57-24 60-98 81-122 140v-15c1-18 5-36 15-51 23-36 51-68 76-102 8-11 13-24 21-35l27-30-5 15Z" class="cls-1"/></defs><defs><clipPath id="clippath"><use xlink:href="#reuse-0" class="cls-2"/></clipPath><clipPath id="clippath-1"><use xlink:href="#reuse-1" class="cls-2"/></clipPath><clipPath id="clippath-2"><use xlink:href="#reuse-2" class="cls-1"/></clipPath><clipPath id="clippath-3"><use xlink:href="#reuse-3" class="cls-1"/></clipPath><style>.cls-1,.cls-2{clip-rule:evenodd}.cls-1,.cls-2,.cls-3,.cls-5,.cls-6,.cls-7,.cls-8,.cls-9{stroke-width:0}.cls-1,.cls-10,.cls-3{fill:#044928}.cls-11,.cls-2{fill:#5440cc}.cls-10,.cls-11,.cls-3,.cls-5,.cls-6,.cls-7,.cls-8,.cls-9{fill-rule:evenodd}.cls-5{fill:#a693f1}.cls-6{fill:#fcb817}.cls-7{fill:#f2ba38}.cls-8{fill:#f2720f}.cls-9{fill:#f9e2d2}</style></defs><path d="m513 269-4-1-14-1c-17 0-32 13-47 20-48 26-59 91-107 118l3-1 10-1c16-3 30-8 43-18 27-23 52-49 78-74l28-22c8-8 14-18 23-26l-13 6Z" class="cls-5"/><use xlink:href="#reuse-0" class="cls-11"/><g clip-path="url(#clippath)"><path d="M889 104c-2 0 0 5-1 7l-5 14c-10 20-19 41-31 60l-8 1a1122 1122 0 0 1-111 6c-8 0-24 3-30-3-4-5 2-13 4-16 9-13 22-23 35-32a374 374 0 0 1 99-39l48 2Z" class="cls-7"/><path d="m679 195 3 1 4 1 15 3 42 5c24 2 48 1 73 1l17 1 5 2c0 2-3 5-4 6l-12 19c-5 8-10 23-19 28-4 2-9 1-13 0l-25-3c-23-4-45-9-67-15-16-4-30-10-46-12l27-37Z" class="cls-8"/><path d="m647 245 4 1 7 3 38 8c22 6 44 12 67 16 8 2 22 2 29 9 6 5-6 18-9 22-5 8-11 18-19 22-9 5-23 2-33 1a313 313 0 0 1-78-24c-10-5-18-13-28-18l22-40Z" class="cls-9"/><path d="M621 294c0 2 4 5 5 6l17 10c24 11 49 22 74 27l23 4c3 1 7 2 8 5 2 5-2 11-4 15-3 4-5 10-9 12-5 3-12 2-17 1-13-1-26-3-38-8l-19-6c-20-7-40-9-61-12l21-54Z" class="cls-7"/><path d="m595 357 7 3 22 4c24 3 48 11 72 15 7 2 26 2 30 9 1 2-1 4-2 6l-9 13c-4 7-8 19-15 23-4 2-9 1-12 0l-31-7c-24-7-42-13-67-10l5-56Z" class="cls-8"/><path d="m577 427 4 1a604 604 0 0 1 35 6l57 6c8 1 19 2 18 12 0 7-7 14-11 19l-9 12-4 5c-2 1-5-1-7-1l-22-7c-22-8-43-17-67-17l6-36Z" class="cls-9"/><path d="M558 479c6 4 16 4 23 5 13 3 26 6 39 7 12 2 27 3 38 10 10 6-4 23-8 30-1 1-4 9-6 9-3 1-7-1-10-2l-26-8c-20-6-40-10-61-9l11-42Z" class="cls-7"/><path d="M547 533c0 2 4 0 6 0l13 4c16 5 32 7 48 8 4 0 17 0 19 4 2 3-5 11-7 14l-8 14-3 4c-3 1-9-1-12-1l-9-1-14-3c-13-3-26-6-39-7l6-36Z" class="cls-3"/><path d="M537 589c0-2 3 0 4 0l9 1 42 6c1 0 12 1 11 4 0 2-5 4-7 5-5 5-10 9-14 15-4 3-7 7-9 11l-7 8c-9 11-31 41-42 17l-3-9c-1-6-2-12-1-18 1-10 3-19 6-28l11-12Z" class="cls-6"/><path d="m848 188-5 1-10 1-28 1h-4l-16 2-11 1h-51 26l29-1 7-1 16-1 4-1 20-1h18l5-1Z" class="cls-9"/><path d="m846 193-2-1-6 1h-9l-21 2h-15l-7 1-23 2a170 170 0 0 1-20 0l-11-1h-13l-17-3 17 3h13l11 1h4l16-1 23-2 7-1h15l18-1 12-1h8v1Z" class="cls-9"/><path d="M841 198v1l-4-1h-22a306 306 0 0 0-13 0l-11 2a748 748 0 0 1-78-1l-22-6 22 5 10 2a311 311 0 0 0 68-1l11-1 3-1h27l5 1h4Z" class="cls-9"/><path d="M838 204h1l-1 1-1-1-4-1a68 68 0 0 0-10-1 395 395 0 0 0-34 1 355 355 0 0 1-70-2l-19-3 19 2a318 318 0 0 0 87 1 397 397 0 0 1 28 1l3 1 1 1Zm-36 63h-2l-4-1-3-1-21-1-9-2-32-7-32-6a261 261 0 0 1-38-13 148 148 0 0 0 38 12l33 6a376 376 0 0 1 40 9l21 2h3l4 1h2v1Z" class="cls-9"/><path d="M799 271h-1l-3-1-3-1-5-1-7-1-17-2-16-3c-12-4-25-8-38-10-7-2-16-2-23-3a49 49 0 0 1-15-4l-19-10 19 10a44 44 0 0 0 15 4c8 1 16 0 24 2l43 11 11 2 16 2 7 2 5 1 3 1 4 1Zm-3 6-3-1a139 139 0 0 0-32-8 217 217 0 0 1-25-4l-16-5a100 100 0 0 0-16-4l-40-8-5-2-12-4 12 4 6 1 39 8a299 299 0 0 1 17 4l15 5 10 2a221 221 0 0 0 24 4 208 208 0 0 1 23 6l3 2Zm-40 57-9-1-15-3-17-2a140 140 0 0 1-24-7l-19-7-12-5a90 90 0 0 1-14-8l-23-15 23 15a129 129 0 0 0 15 8l11 4 19 8a134 134 0 0 0 24 6l17 2 15 3a98 98 0 0 0 10 1l-1 1Z" class="cls-9"/><path d="M754 338a203 203 0 0 0-6-1h-7l-5-1-11-2-14-3-10-3a406 406 0 0 1-71-32l-26-18 26 18a200 200 0 0 0 41 20 425 425 0 0 0 40 14l14 3 11 3h5l7 1h3l3 1h1-1Z" class="cls-9"/><path d="m751 342 2 1h-2l-2-1h-4l-4-1-7-3-5-1-13-2-5-2-11-3a317 317 0 0 1-94-45l-5-4 5 4a84 84 0 0 0 19 13 460 460 0 0 0 76 31l10 4 5 1 13 2 5 2 7 2 4 1h3l2 1h1Zm-22 36h-8l-6-1-13-2a77 77 0 0 1-13-3l-18-5-20-7a93 93 0 0 0-15-4l-25-4-6-2c-8-2-16-5-25-6l-11-3 11 2 25 7 6 1 26 5a125 125 0 0 1 15 3l20 7 17 5a139 139 0 0 0 13 4l13 2 7 1h7Z" class="cls-9"/><path d="m728 383-9-3-38-7-5-1-16-7-8-2-19-4-25-6a263 263 0 0 0 0-1l25 7 19 4 8 1 17 7 4 1c12 4 25 5 38 8a138 138 0 0 1 9 3Z" class="cls-9"/><path d="m727 385-4-1-8-3-8-2-12-2h-11l-5-1-10-3-24-7-14-3-6-2-26-7a241 241 0 0 0-21-5l-25-4 25 4a245 245 0 0 1 21 4l27 8 5 1 14 3 27 9a116 116 0 0 0 12 2h10l13 2 8 2 8 4h4v1Zm-32 49v1l-1-1h-3l-3-1-5-1a314 314 0 0 1-41-10l-9-1-15-2-6-1-16-2-21-5-32-8 32 8 21 4 16 3 7 1 14 1 9 2a849 849 0 0 0 41 10l5 1h3l3 1h1Zm0 0Zm-1 4-3-1-8-1-4-1-13-3-20-4-28-5a2294 2294 0 0 1-41-8l42 7a1849 1849 0 0 1 65 13l7 2 4 1v1l-1-1Zm0 3h-4l-17-6-30-4-8-1-27-6-40-9a321 321 0 0 0 0-1l40 9 27 6 8 1 30 5 17 5 4 1Z" class="cls-9"/><path d="m692 445-3-1-7-3a61 61 0 0 0-14-3l-41-4-10-2-35-8-52-17 52 16a364 364 0 0 0 45 10l41 4a143 143 0 0 1 14 3l7 3 3 1h1l-1 1Zm-28 46-2-1-7-2-23-8-22-8a182 182 0 0 0-39-9l-36-3 36 3a243 243 0 0 1 39 8l23 8 22 8 7 2 3 2h-1Z" class="cls-9"/><path d="M663 493h-1l-3-1a85 85 0 0 1-13-4l-15-6a265 265 0 0 0-51-14 1869 1869 0 0 0 52 14l14 5a195 195 0 0 0 13 5h4v1Zm-1 4-2-1a26 26 0 0 0-3-1h-4l-6-2-19-7-12-5c-11-3-15 1-25-1-11-2-10-6-25-12-10-3-18-4-29-5a135 135 0 0 0 0-1c10 2 19 2 29 6 17 5 16 10 27 11 9 1 13-1 23 2l12 4 19 7 6 2a30 30 0 0 0 6 1l1 1h3l-1 1Zm0-1Zm0 0Zm-1 4s0 1 0 0h-2l-3-1-3-1-6-2a150 150 0 0 0-28-6l-23-3a118 118 0 0 1-15-3l-13-4a1084 1084 0 0 0 0-1l13 4a77 77 0 0 0 12 3l26 3a324 324 0 0 1 28 6l6 2 3 1 3 1 1 1h1Zm0 0Zm-20 42h-2l-3-1a72 72 0 0 0-8-3l-19-4-25-7a241 241 0 0 0-19-4l-22-3-4-1-17-3-5-1-14-1 14 1 5 1 17 3h4l22 4a195 195 0 0 1 20 4l24 6 19 5a130 130 0 0 1 11 3h2v1Zm-7 2-2-1-7-2-16-3h-5l-24-7a290 290 0 0 0-43-8 577 577 0 0 0 43 8l25 6 6 1 14 3 7 2h2v1Zm-14-1-13-1-19-3-15-3a103 103 0 0 1-18-5l-10-4a811 811 0 0 0 0-1l11 5a99 99 0 0 0 17 4l15 3 19 4a139 139 0 0 0 13 1Zm-8 41h-2l-4-1a147 147 0 0 0-17-3l-17-3-25-5-10-2-24-5 24 5 10 1 25 5a279 279 0 0 0 34 6l4 1h2v1Zm-1 2-30-4-13-3-41-8 41 8 13 2 30 5Zm-2 3-2-1h-4a643 643 0 0 0-40-7l-48-10 48 10a511 511 0 0 0 40 6l5 1 2 1h-1Zm-3 2v1h-1l-2-1-7-1-16-2a179 179 0 0 1-15-2l-19-4a384 384 0 0 0 6 0l22 4 6 1 16 2 7 2h3Zm-1 5h-2l-5-1a391 391 0 0 0-15-3l-17-2-12-2-30-6a368 368 0 0 0 5 0l25 5 12 2 17 2a289 289 0 0 1 15 3l5 1 2 1Z" class="cls-9"/><path d="m921 137 4 2c-1 2-8 5-10 6-12 9-20 21-28 33-21 32-37 66-61 97-18 24-23 54-39 79-10 16-23 29-32 45-21 35-38 71-60 105-26 38-55 74-82 111-18 26-41 51-54 79-6 12-9 29 4 37 17 9 40-4 54-12 45-26 85-62 127-92 45-30 98-54 134-94 53-58 107-177 115-255 4-30-2-57-6-87-4-34-6-64-17-98l-49 44Z" class="cls-3"/></g><path fill="#23948d" fill-rule="evenodd" stroke-width="0" d="M856 422h-1 1Zm-77 42Z"/><use xlink:href="#reuse-1" class="cls-11"/><g clip-path="url(#clippath-1)"><path d="m596 198-4 2-10 5a127 127 0 0 1-31 7c-22 3-44 1-65 3-10 0-19 2-28 4a580 580 0 0 0-80 40 600 600 0 0 1-42 24c14-7 28-16 42-25l41-25c12-6 25-12 39-16 9-2 18-4 27-4 22-2 44 0 66-2a151 151 0 0 0 31-8l10-5 4-1 1 1h-1Z" class="cls-9"/><path d="M587 208a1 1 0 0 1 1 0v1h-1l-5 2-11 4a83 83 0 0 1-17 4h-16l-41 1-17 1c-10 1-20 4-29 7a204 204 0 0 0-40 19l-32 18-47 27h-1l1-1 46-28a1134 1134 0 0 1 72-37 125 125 0 0 1 47-8h41l16-1a64 64 0 0 0 17-3l11-4 5-2Z" class="cls-9"/><path d="M564 225c-5 2-10 2-15 2l-23-1a184 184 0 0 0-73 11 297 297 0 0 0-55 24 861 861 0 0 0 54-26 223 223 0 0 1 74-11l23 2c5 0 10 0 15-2v1Z" class="cls-9"/><path d="M552 239h-1l-4-1a188 188 0 0 0-31-2 175 175 0 0 0-95 27 333 333 0 0 0 43-21 166 166 0 0 1 77-6l6 1 4 1h2l-1 1Z" class="cls-9"/><path d="M544 245a150 150 0 0 0-52 1 243 243 0 0 0-51 14 226 226 0 0 1 71-18 150 150 0 0 1 32 2v1Z" class="cls-9"/><path d="M537 250v1h-7a111 111 0 0 0-31 2 214 214 0 0 0-38 9h-1l1-1a368 368 0 0 1 38-10 139 139 0 0 1 31-2l5 1h2Zm0 0h-1 1Zm114-113-4 2-12 3c-12 4-24 6-36 6-14 1-29-1-43-2a188 188 0 0 0-65 6l-20 8c-13 6-24 14-37 21a148 148 0 0 1-20 10 207 207 0 0 1-19 4 221 221 0 0 0 29-10c13-6 25-14 37-22a148 148 0 0 1 30-13l22-5c14-2 28-2 43-1l43 3c12-1 24-2 36-6l11-3 5-2v1c1 0 1 0 0 0Z" class="cls-9"/><path d="M630 154h-7a198 198 0 0 1-15 0l-27-2h-18l-29-1-19 2-36 12c-17 8-34 17-50 27v-1c16-10 32-20 50-28a182 182 0 0 1 36-12l19-2 29 1 18 1 27 1a177 177 0 0 0 15 1h5l2-1 1 1v1h-1Zm0-1Z" class="cls-9"/><path d="m620 161 3 1h-23l-8-1-32-2a187 187 0 0 0-59 7 243 243 0 0 0-57 23v-1a274 274 0 0 1 71-27 211 211 0 0 1 53-3l32 2 4 1h16Z" class="cls-9"/><path d="M613 171h-2l-4-1h-3l-9-1-36-3a214 214 0 0 0-40 1 182 182 0 0 0-48 14 293 293 0 0 0-23 10 297 297 0 0 1 46-20 172 172 0 0 1 66-7l35 4 9 1h9v2Z" class="cls-9"/><path d="m602 177-8-2-20-1a214 214 0 0 0-71 6 306 306 0 0 0-29 8 294 294 0 0 1 69-16h31l20 1 9 2v1h-1Z" class="cls-9"/><path d="M594 182h-3l-4-1h-3a127 127 0 0 0-21-1 361 361 0 0 0-47 3 206 206 0 0 1 58-4 136 136 0 0 1 20 2h1v2l-1-1Zm0 0Zm0 0v1-1Zm36-18v4l-2 7a210 210 0 0 0-4 31 454 454 0 0 1-13 79 213 213 0 0 1-19 43l-11 17h-1v-1l10-16 7-12a217 217 0 0 0 18-54 349 349 0 0 0 9-72l3-16 2-7v-3h1Z" class="cls-9"/><path d="M639 156v5l-2 10-2 10-2 16-1 11-5 26a935 935 0 0 1-10 46c-2 10-6 20-10 30l-7 11c-6 8-13 15-18 24h-1v-1l18-24 6-11a183 183 0 0 0 16-52l4-24 5-25 2-11 2-16 1-10 3-10v-4a1 1 0 0 1 1-1Z" class="cls-9"/><path d="M646 149v1l1 2-1 3-1 8-2 26a376 376 0 0 1-7 41l-10 34-8 26a119 119 0 0 1-16 28l-14 16c0 1 0 1 0 0h-1l14-17a103 103 0 0 0 15-28l8-25 10-35a286 286 0 0 0 7-40l3-27 1-7v-6l1-1v1c1 0 1 0 0 0Z" class="cls-9"/><path d="M655 141v2l-1 3v2a420 420 0 0 0-6 44l-4 19-6 29-4 19a145 145 0 0 1-27 53l-14 15-6 7v-1l5-7 14-15 6-9a176 176 0 0 0 20-44l4-19 7-29a289 289 0 0 0 8-53l2-9v-2l1-3v-3h1v1Zm0 0Zm9-11-1 7c-2 5-2 11-3 16l-3 21-1 9a2472 2472 0 0 0-6 38l2-20a1019 1019 0 0 1 6-48l3-14 2-9 1-1v1Zm55-32 1-1v1h1l-1 1-2 1-2 2a84 84 0 0 0-6 7l-6 7-13 22a91 91 0 0 0-11 43v31l-1 19-3 29-1 16-1 7c-1 3-1 6-3 8l-8 19a1 1 0 0 1-1 0l8-19a50 50 0 0 0 4-15l1-16 2-29 1-19v-31c1-7 1-14 3-20 1-8 5-17 9-24l13-22 6-7a73 73 0 0 1 8-9l2-1Z" class="cls-9"/><path d="m735 90-7 7c-4 3-7 8-9 11a118 118 0 0 0-30 70c-1 14 1 29 1 43l-1 11c-1 11-4 22-7 33-4 16-10 32-16 48h-1v-1l16-47a202 202 0 0 0 7-44c0-14-2-29-1-43 1-13 4-26 10-38 5-12 12-23 21-33l9-11 7-7h1v1Z" class="cls-9"/><path d="M746 84c-15 12-27 28-36 46a172 172 0 0 0-15 76v20l-2 17-7 20c-6 14-16 28-22 43l-1-1c6-15 15-28 22-43a88 88 0 0 0 8-36v-39c2-20 7-39 16-57a130 130 0 0 1 37-47v1Z" class="cls-9"/><path d="m757 79 1 1-1 1-2 1a69 69 0 0 0-4 3 140 140 0 0 0-13 13 106 106 0 0 0-24 47 316 316 0 0 0-7 31l-4 41a107 107 0 0 1-15 47c-8 16-19 29-26 45h-1v-1c7-15 18-29 26-44a106 106 0 0 0 14-47l4-41 2-13a307 307 0 0 1 15-44 107 107 0 0 1 28-35l2-1 3-2 1-1 1-1Zm0 1Zm0-1Z" class="cls-9"/><path d="m751 97-7 9-3 4a118 118 0 0 0-17 36c-4 14-6 28-8 42l-4 29-4 18c-3 8-7 16-12 23-10 17-24 33-35 50v-1c10-17 23-32 34-50a106 106 0 0 0 15-40l5-29a264 264 0 0 1 15-61 122 122 0 0 1 13-22l8-8c0-1 0-1 0 0 1 0 1 0 0 0Z" class="cls-9"/><path d="m728 183-4 10-3 17a163 163 0 0 1-7 32l-6 11-12 15-15 18a524 524 0 0 1-11 11l7-9 17-21 12-15 6-11a139 139 0 0 0 8-31c1-6 1-12 3-17 0-4 2-7 4-11h1v1Zm64-113-5 5-5 11c-3 4-7 9-9 14a51 51 0 0 0-7 23l-2 28-2 13-4 18-3 16a113 113 0 0 1-3 14l-8 28h-1l8-29a287 287 0 0 0 3-14l2-16 4-18 2-12 2-29 3-12 4-10 9-15 7-12 5-4c0-1 0 0 0 0v1Z" class="cls-9"/><path d="m800 64-2 2-2 4a362 362 0 0 0-8 14l-9 18a66 66 0 0 0-6 20l-1 12a244 244 0 0 1-19 82l-10 23a176 176 0 0 0-3 6l2-6 10-23a302 302 0 0 0 18-82l1-12a54 54 0 0 1 7-21c2-6 6-12 9-17a426 426 0 0 1 8-15l3-4 1-2h1v1Z" class="cls-9"/><path d="m806 65-1 1-2 2a138 138 0 0 0-4 9c-3 7-7 13-9 20a123 123 0 0 0-7 23c-2 13-2 27-5 40a201 201 0 0 1-12 34 577 577 0 0 1-2-1 273 273 0 0 0 12-34c3-13 3-26 5-39a80 80 0 0 1 7-24l10-19a122 122 0 0 1 4-9l2-2v-1l1-1 1 1Z" class="cls-9"/><path d="M818 59v2l-2 2-5 7-1 3-12 19a97 97 0 0 0-9 26l-4 32a103 103 0 0 1-15 44l-16 26a355 355 0 0 0-1 0l15-26 11-24c3-8 4-17 5-26l3-26a85 85 0 0 1 10-27l11-19 2-3 5-6 2-3v-1h1Zm24-8-1-1-4-4-21-17a153 153 0 0 0-21-13l-9-4-25-10a719 719 0 0 1-31-15l-30-18-1-1h1l30 17 21 10 13 5 12 6 11 4 9 4 6 3 15 11 21 17 4 4v2Z" class="cls-9"/><path d="M831 48c-9-8-18-14-28-20a472 472 0 0 0-47-23 459 459 0 0 1-44-27l-13-11a1 1 0 1 1 1-1l13 11a176 176 0 0 0 23 15l21 11 19 9c9 5 19 9 27 15a160 160 0 0 1 29 21h-1Zm-7 1h-1l-1-2-3-2-8-4-12-7-21-13-13-8a2747 2747 0 0 1-21-12l-30-19s0-1 0 0a2730 2730 0 0 1 65 37l21 13 11 7 8 5 5 3 1 2h-1Zm0 0Z" class="cls-9"/><path d="m820 50-3-1a111 111 0 0 0-8-4l-8-4-13-7a159 159 0 0 1-33-22L742-1l-6-5v-1h1l6 5 14 12a164 164 0 0 0 32 23l12 6a362 362 0 0 0 14 7l3 2a76 76 0 0 1 3 2h-1c0 1 0 1 0 0Zm0 0Zm0 0Zm-46 19-3-2-5-5a138 138 0 0 0-17-12l-21-13-10-6-17-12a110 110 0 0 0-16-10l-19-9-16-7a72 72 0 0 0-30-7l-29 4-18 1-8 2-24 6-17 2v-2c6 0 11 0 17-2l24-6 8-1 18-2c10-1 19-3 29-3a71 71 0 0 1 31 6l16 7 19 9a156 156 0 0 1 16 10l17 13 9 6 22 12a101 101 0 0 1 16 13l6 5 3 2-1 1Z" class="cls-9"/><path d="M769 69h1l-1 1-2-1-3-2-4-3-5-3-21-15-19-13c-16-9-32-16-47-26-13-8-28-12-42-13s-28 0-42 2c-21 3-42 7-62 8l-1-1h1c20-1 41-6 62-9 14-2 28-3 42-2 15 1 29 5 43 14l47 26 19 13 21 15 5 3 3 3 3 2h1l1 1Zm0 0Zm0 0Z" class="cls-9"/><path d="M756 71h1v2l-1-1-2-2-4-2-2-2a464 464 0 0 0-16-11l-31-19-21-12-15-9-6-3a141 141 0 0 0-69-12l-7 1-17 5-10 1-16 1h-1l1-1 16-1 10-2 16-4 8-2a132 132 0 0 1 76 15l15 9 21 13 30 19a344 344 0 0 1 23 16l1 1Z" class="cls-9"/><path d="M750 73v1h-1l-4-2-14-7a1401 1401 0 0 1-57-34l-17-12a123 123 0 0 0-25-10l-18-4-11-2h-8c-11 0-23 3-34 4l-9 1V7l9-1c11-1 23-5 34-5h8l11 2 19 4a76 76 0 0 1 25 10l18 12a821 821 0 0 0 56 34l13 8 4 2h1Z" class="cls-9"/><path d="m744 76-9-4-13-5a106 106 0 0 1-23-10l-28-20-19-13-21-11a134 134 0 0 0-72-1v-1a135 135 0 0 1 72 0l23 11 18 14 28 19a202 202 0 0 0 22 11l14 5 9 4v1h-1Z" class="cls-9"/></g><path d="m928 40-15 2a246 246 0 0 0-39 8l-47 11a351 351 0 0 0-40 12l-29 13-34 14a193 193 0 0 0-50 31l-32 28c-26 25-50 55-77 80-19 17-39 32-62 42a4 4 0 1 1-4-8c22-10 41-25 58-42 26-26 49-57 74-83a360 360 0 0 1 72-55l15-7 35-13c10-4 19-9 29-12a237 237 0 0 1 42-12l48-10a602 602 0 0 1 40-7l15-1a5 5 0 0 1 1 9Z" class="cls-6"/><use xlink:href="#reuse-2" class="cls-10"/><g clip-path="url(#clippath-2)"><path d="M736 764a68 68 0 0 0-15 32l-2 23-1 6a212 212 0 0 1-38 78l-21 21-33 29-14 14c-5 6-9 14-13 22l-13 36h2l13-36a90 90 0 0 1 26-35l34-28a203 203 0 0 0 38-46 209 209 0 0 0 21-55l1-6 1-23a67 67 0 0 1 15-31v-1h-1Z" class="cls-9"/><path d="M728 786v3l-1 8-1 15v6a136 136 0 0 1-13 43l-5 10-8 14-14 24a1256 1256 0 0 1 1 0l15-23 8-14 5-10a199 199 0 0 0 13-43v-22l1-8 1-2-1-1h-1Zm-7-3c-2 1-2 4-3 6l-3 9-7 27-1 7a206 206 0 0 1-47 82l-31 24a136 136 0 0 0-30 35c-4 7-6 14-8 22l-6 33 1 1 7-34c2-7 4-14 8-21a136 136 0 0 1 30-34l31-24 17-20a282 282 0 0 0 31-70l7-28 2-9 3-6-1-1-1 1Z" class="cls-9"/><path d="m706 793-3 10-7 23-11 35a112 112 0 0 1-25 37l-18 17-18 17c-9 10-16 20-23 30a323 323 0 0 0-16 34 326 326 0 0 1 40-62l18-17 19-17a120 120 0 0 0 25-38l11-35 6-24a241 241 0 0 0 3-11l-1 1Z" class="cls-9"/><path d="M683 828v1l-2 7a209 209 0 0 1-10 30l-10 15-19 19a254 254 0 0 0-33 40 281 281 0 0 0-15 29 292 292 0 0 1 38-55l13-13 13-13a89 89 0 0 0 19-33l6-18 1-7v-3l-1 1Zm0 0v1-1Zm114-145v5l-5 12a147 147 0 0 0-5 37c0 26 5 51 6 77a193 193 0 0 1-14 79l-23 52a704 704 0 0 0-22 52c7-17 15-35 24-52l23-51c6-16 11-31 13-47 2-11 2-22 2-33-2-26-7-51-7-77a178 178 0 0 1 4-37l5-12v-6l-1 1Z" class="cls-9"/><path d="M788 695v-1l-1-1-1 1v1l-1 6-4 13a93 93 0 0 0-2 21l2 18 5 48 1 20c0 12-2 24-4 35a237 237 0 0 1-17 49l-16 40-26 58v1l1-1 27-58a1339 1339 0 0 0 33-89 147 147 0 0 0 3-55l-6-48-1-18a77 77 0 0 1 2-21l3-13 1-6Z" class="cls-9"/><path d="M770 724v18l5 26a214 214 0 0 1-3 87 346 346 0 0 1-21 67 1012 1012 0 0 1 23-67 264 264 0 0 0 3-87l-5-26v-18l-1-1-1 1Z" class="cls-9"/><path d="M756 739v2l2 4a209 209 0 0 1 6 37 204 204 0 0 1-18 114 382 382 0 0 1 2 0 282 282 0 0 0 17-54 195 195 0 0 0-4-90l-2-7-1-4-1-1v-1h-1Z" class="cls-9"/><path d="M750 750a177 177 0 0 1 6 61 295 295 0 0 1-9 60 265 265 0 0 0 11-85 175 175 0 0 0-7-37l-1 1Z" class="cls-9"/><path d="M745 759v-1l-1 1v2l2 6a131 131 0 0 1 2 36 246 246 0 0 1-6 46h1a429 429 0 0 0 7-46 165 165 0 0 0-3-37l-2-5v-2Zm0 0Zm116-149-2 6-2 13c-3 15-3 29-2 44l9 50a220 220 0 0 1 1 75c-1 9-3 17-6 25-5 16-13 30-20 46a169 169 0 0 0-8 25 241 241 0 0 0-2 22 255 255 0 0 1 7-35c6-16 14-30 21-45a166 166 0 0 0 13-63c1-17-1-34-4-51-3-16-7-33-9-50-1-14-1-28 2-42l2-14 1-5v-1h-1Z" class="cls-9"/><path d="M845 638v7a244 244 0 0 0 3 18l5 32 3 20 5 34v22c-1 14-4 29-9 43-6 21-16 42-24 62v1l1-1c9-20 18-40 25-61a215 215 0 0 0 9-44v-23l-5-33-3-21-6-31a216 216 0 0 1-2-18l-1-5v-3l-1-1v2Zm1-1Z" class="cls-9"/><path d="M837 650v-1l-1-3v4l1 2v6l2 11v4l2 9 7 37a218 218 0 0 1 0 70 286 286 0 0 1-19 69h1a324 324 0 0 0 22-86 246 246 0 0 0-4-62l-7-37-1-5-1-11-1-5-1-2Z" class="cls-9"/><path d="m827 659 1 3 1 4 1 4 1 10 9 41a256 256 0 0 1 4 47 214 214 0 0 1-10 58 344 344 0 0 1-8 28 348 348 0 0 0 17-56 201 201 0 0 0-1-77l-9-42-2-9-1-4-1-5v-1l-1-1h-1Z" class="cls-9"/><path d="m822 673 3 9 4 23a252 252 0 0 1 2 83 360 360 0 0 1-4 36 344 344 0 0 0 8-83c0-12-2-24-4-36l-4-23-4-10h-1v1Z" class="cls-9"/><path d="M816 683v1l1 1v1l2 5a91 91 0 0 1 2 13 284 284 0 0 1 4 52 283 283 0 0 1-1 37 212 212 0 0 0 3-52 383 383 0 0 0-9-58l-1-1a1 1 0 0 0-1 0v1Zm1 0Zm-1 0Zm17-44-2-1-3 1-8 3a243 243 0 0 1-35 9 541 541 0 0 0-90 26 252 252 0 0 0-48 29l-18 15v1h1l18-15 12-9a257 257 0 0 1 61-28 409 409 0 0 1 82-21l18-5 8-4h3a1 1 0 1 0 1-1Z" class="cls-9"/><path d="m840 627-5 1-11 4-12 3-19 4-12 4-29 9-26 8a373 373 0 0 0-60 26l-12 9c-8 8-16 17-25 24v1h1l26-24 11-9a214 214 0 0 1 59-25l27-8 28-9 13-4 18-5 12-3 11-4 5-1 1-1h-1Z" class="cls-9"/><path d="M847 618h-7l-8 2-30 7a442 442 0 0 0-47 14l-38 16-29 13a141 141 0 0 0-31 22l-17 18v1h1l17-18a120 120 0 0 1 31-21l29-13 38-16a333 333 0 0 1 46-14l31-7 8-2 3-1h4l1-1-1-1-1 1Z" class="cls-9"/><path d="m856 606-2 1-4 1h-2a484 484 0 0 1-50 13l-22 7-32 11-22 8a170 170 0 0 0-58 38l-16 19-7 7v1c1 0 0 1 0 0l8-7 16-19 9-8 14-11a438 438 0 0 1 56-26l33-11a348 348 0 0 1 61-17l10-3 2-1 4-1 2-1h1v-1h-1Zm0 0Zm11-12-7 3-19 5a551 551 0 0 1-34 9l-11 3-16 4-17 4v1l24-5a1188 1188 0 0 0 54-14l16-5 11-4v-1h-1Zm30-68h1v-1l-1-1-1 1-1 2a201 201 0 0 1-9 11l-8 7-23 19a107 107 0 0 1-49 19l-36 4-22 4-33 7-19 4a91 91 0 0 0-17 6l-21 12-1 1 1 1 21-13a59 59 0 0 1 18-6l18-3 33-7 22-4 36-4 24-6c9-3 18-8 26-14 9-5 16-12 23-18l8-8a83 83 0 0 0 7-8l2-3 1-2Z" class="cls-9"/><path d="M904 506c-1 4-4 7-6 10l-12 12c-11 10-23 20-36 28s-27 14-42 16c-16 4-33 3-50 5l-12 2a512 512 0 0 0-91 38v2l54-26a237 237 0 0 1 49-14c17-2 34-1 51-4 15-3 29-9 42-17s25-18 36-29l12-12 6-10v-1h-1Z" class="cls-9"/><path d="M910 493c-12 19-29 35-49 47a202 202 0 0 1-87 29l-23 3-19 4-22 11c-16 9-31 22-47 31v1h1c16-9 31-21 47-31a102 102 0 0 1 41-14l23-2 23-4c22-5 44-14 64-26a152 152 0 0 0 49-49h-1Z" class="cls-9"/><path d="M914 480v-1l-1-1v1l-1 1-1 2-1 2-2 3a172 172 0 0 1-13 17 125 125 0 0 1-51 34 366 366 0 0 1-36 13l-48 9c-10 3-20 6-30 11-8 3-16 8-23 13-16 12-30 27-47 37v1l1 1c17-11 31-26 47-37a123 123 0 0 1 53-23l47-10 15-5a366 366 0 0 0 49-22 126 126 0 0 0 37-38l2-3 1-3 2-2Zm-1-1Zm1 1v-1 1Z" class="cls-9"/><path d="m894 488-9 10-4 4a138 138 0 0 1-40 24c-16 7-32 11-49 15l-33 9-20 8c-9 4-17 10-25 16-19 15-34 33-53 48v1h1c19-14 35-33 53-47a124 124 0 0 1 45-23l33-9a310 310 0 0 0 70-27 142 142 0 0 0 23-18l9-10v-1h-1Z" class="cls-9"/><path d="M797 527c-3 3-7 5-11 6-6 3-13 4-19 6a186 186 0 0 0-36 13c-5 2-9 5-13 9l-16 16-18 19a693 693 0 0 0-11 15l9-10 22-23 16-16 12-8a163 163 0 0 1 35-14l19-5c5-2 9-4 12-7v-1h-1Zm123-90-6 6-11 9-16 12a61 61 0 0 1-25 11l-33 6-14 4-20 7-19 5a137 137 0 0 0-15 6l-32 13-1 1h1c11-3 21-8 32-12a372 372 0 0 1 16-6l18-5 21-7 14-4c10-3 22-4 33-6l14-5 11-7 16-12 13-10 5-5-1-1h-1Z" class="cls-9"/><path d="m926 427-2 3-4 2a510 510 0 0 1-16 12l-19 13a78 78 0 0 1-23 10l-14 2a262 262 0 0 0-62 18l-31 15-25 15a187 187 0 0 1-7 5h1l6-3c9-5 17-11 26-15a358 358 0 0 1 92-33l14-2a63 63 0 0 0 24-11l19-13a456 456 0 0 0 15-12c2 0 4-2 5-3l2-2v-1h-1Z" class="cls-9"/><path d="M924 421h-1l-3 3a142 142 0 0 1-9 6l-22 14a146 146 0 0 1-26 11c-15 4-31 5-46 11a233 233 0 0 0-38 18 676 676 0 0 0 1 2 317 317 0 0 1 38-18c15-5 30-7 45-11a93 93 0 0 0 27-12l21-13a131 131 0 0 0 10-7l2-2 1-1 1-1h-1Z" class="cls-9"/><path d="m929 405-2 1-3 3-6 6-4 2-21 16a114 114 0 0 1-29 15l-36 8a122 122 0 0 0-50 24l-28 22a419 419 0 0 1 1 1l28-21 26-16 29-9 31-7a99 99 0 0 0 29-15c8-5 14-11 21-17l3-2 7-6 3-3 1-1 1-1h-1Z" class="cls-9"/></g><path d="m930 265 2 19a281 281 0 0 1-3 49l-5 61a400 400 0 0 1-8 51l-11 38c-5 14-8 30-12 44l-7 18a417 417 0 0 1-58 91c-28 35-65 68-93 104-20 25-36 52-44 83-1 3 1 6 4 7 4 1 7-1 8-4 8-28 25-53 45-76 31-35 68-67 98-101a403 403 0 0 0 61-96l6-19c5-15 7-31 11-46l10-38a255 255 0 0 0 8-53l2-62a678 678 0 0 0 1-51l-2-19c-1-3-4-6-7-6-4 0-6 3-6 6Z" class="cls-8"/><path d="m677 110-5 3-21 6c-14 3-29 6-43 6-15 0-29-3-44-5-11-1-21-2-32-1-20 3-40 11-58 21-13 8-25 19-38 27l-18 8 4-1 12-1c16-3 30-5 46-5h52c28 1 60 2 86-10 9-5 16-12 23-19l24-21 12-8Zm169-60-3-4-8-8c-8-8-17-16-26-22-20-14-46-18-69-27l-21-9c-2-1-7-5-10-5l3 1 5 4 16 14c9 7 19 13 27 21l19 17c10 7 20 13 31 15 5 1 17 1 20 5l7-1-1 2-5 5c-4 7-8 13-10 20-6 14-3 29-6 44a85 85 0 0 1-6 17l-2 5 1-2 1-3 2-2c4-7 9-12 14-18 8-13 19-25 24-39l3-16c0-5-1-10 1-14h-7Z" class="cls-5"/><use xlink:href="#reuse-3" class="cls-10"/></svg>