<svg xmlns="http://www.w3.org/2000/svg" viewBox="0 0 1268 562"><path fill="white" d="M187 162V25h59v237h-53L86 121v141H27V25h55l105 137ZM514 191a122 122 0 0 1-67 66 132 132 0 0 1-101 0 122 122 0 0 1-76-114 124 124 0 0 1 36-87 126 126 0 0 1 91-36 129 129 0 0 1 91 36 121 121 0 0 1 35 87c0 17-3 33-9 48Zm-56-74c-3-9-8-16-14-22a64 64 0 0 0-47-21c-10 0-19 2-27 5a63 63 0 0 0-34 37 76 76 0 0 0 13 76 64 64 0 0 0 75 15 64 64 0 0 0 34-37 75 75 0 0 0 0-53ZM27 289h88c21 0 40 3 56 9s30 14 42 24c11 10 20 23 26 37s9 30 9 48-3 33-9 47c-6 15-15 28-26 38-12 11-26 19-42 25-17 6-36 9-57 9H27V289Zm59 185h30c11 0 21-2 29-5a56 56 0 0 0 36-34 72 72 0 0 0 0-54c-2-8-7-15-13-21-6-5-13-10-21-13-9-3-18-5-28-5H86v132ZM514 455a122 122 0 0 1-67 66 132 132 0 0 1-101 0 122 122 0 0 1-76-113 124 124 0 0 1 36-87 126 126 0 0 1 91-36 129 129 0 0 1 91 36 121 121 0 0 1 35 86c0 17-3 33-9 48Zm-56-74c-3-8-8-15-14-22a64 64 0 0 0-47-21c-10 0-19 2-27 6a63 63 0 0 0-34 36 76 76 0 0 0 13 77 64 64 0 0 0 75 15 64 64 0 0 0 34-37 75 75 0 0 0 0-54ZM545 289h89c20 0 39 3 55 9 17 6 31 14 42 24s20 23 26 37 9 30 9 48-3 33-9 47c-6 15-15 28-26 38-11 11-25 19-42 25s-35 9-56 9h-88V289Zm60 185h29c11 0 21-2 30-5s16-7 22-13 11-13 14-21 5-17 5-27-2-19-5-27-7-15-13-21a76 76 0 0 0-50-18h-32v132ZM1170 476c4 0 8-1 11-3 4-1 7-3 9-6 2-2 4-6 4-10 0-6-4-12-10-15a848 848 0 0 0-54-19c-12-4-22-8-31-14-10-5-18-12-24-21s-10-21-10-35a65 65 0 0 1 27-54c9-6 18-11 29-14a159 159 0 0 1 84 3c14 5 28 13 40 22v56a142 142 0 0 0-87-37c-11 0-19 2-25 6-5 4-7 8-7 13 0 7 3 12 10 15 6 4 14 7 24 10l32 10c11 3 21 8 31 14 9 6 17 14 23 25a69 69 0 0 1-22 87c-8 6-18 10-28 13a180 180 0 0 1-91-5c-19-6-36-15-50-28v-55a213 213 0 0 0 50 31 180 180 0 0 0 55 11h10ZM900 527c9-7 43-36 49-56l1-4c2-7 5-21-1-37-3-9-35-37-35-37 1-2 2-2 4-2 5 0 9 2 14 6l8 7c3 2 5 5 9 5 3 1 6 2 9 1l5-2h1v3l-2 9v2l5-2 5-4 6-9 3-7 1-9-2-10-4-6c-3-4-7-3-14-6-6-3-10-6-14-11 0 0-6-5-8-10l-3-4c-2-6-6-11-8-13-7-7-17-7-25-8-4 0-11-1-19 2-3 1-8 3-14 8-5 4-8 9-10 12l-4 6c-2 4-3 9-3 22 1 16 11 39 11 39l1 2a591 591 0 0 0-76-17c-1-9-2-24 4-39 4-11 11-20 14-25a118 118 0 0 1 51-39 128 128 0 0 1 138 26 117 117 0 0 1 36 86 118 118 0 0 1-28 77 129 129 0 0 1-105 44Z"/></svg>