<?xml version="1.0" standalone="no"?>
<!DOCTYPE svg PUBLIC "-//W3C//DTD SVG 20010904//EN"
 "http://www.w3.org/TR/2001/REC-SVG-20010904/DTD/svg10.dtd">
<svg version="1.0" xmlns="http://www.w3.org/2000/svg"
 width="1125.000000pt" height="1125.000000pt" viewBox="0 0 1125.000000 1125.000000"
 preserveAspectRatio="xMidYMid meet">
<metadata>
Created by potrace 1.14, written by Peter Selinger 2001-2017
</metadata>
<g transform="translate(0.000000,1125.000000) scale(0.100000,-0.100000)"
fill="#000000" stroke="none">
<path d="M5266 10932 c-2 -1 -57 -4 -122 -7 -185 -8 -372 -24 -464 -40 -14 -3
-47 -7 -75 -10 -27 -3 -86 -12 -130 -20 -44 -8 -93 -17 -110 -20 -26 -5 -52
-10 -140 -30 -11 -2 -65 -16 -120 -30 -55 -14 -109 -27 -120 -30 -47 -11 -338
-110 -430 -146 -126 -50 -123 -49 -349 -160 -237 -118 -221 -110 -344 -185
-57 -35 -107 -64 -112 -64 -5 0 -10 -3 -12 -7 -1 -5 -30 -26 -63 -47 -56 -37
-255 -180 -300 -217 -218 -177 -418 -365 -583 -547 -42 -47 -84 -93 -92 -101
-98 -106 -420 -536 -420 -561 0 -6 -4 -10 -8 -10 -5 0 -15 -12 -23 -27 -8 -16
-17 -30 -20 -33 -13 -12 -149 -238 -149 -248 0 -7 -3 -12 -7 -12 -5 0 -13 -10
-19 -23 -6 -12 -46 -89 -90 -172 -43 -82 -79 -152 -79 -155 -1 -3 -11 -25 -22
-50 -66 -141 -91 -199 -85 -204 3 -3 0 -6 -6 -6 -7 0 -12 -9 -12 -20 0 -12 -6
-31 -14 -43 -11 -17 -120 -320 -131 -362 -6 -24 -9 -33 -26 -82 -10 -29 -15
-53 -12 -53 3 0 1 -6 -5 -13 -6 -7 -14 -28 -17 -46 -3 -18 -15 -67 -26 -108
-11 -41 -23 -86 -25 -101 -3 -15 -9 -40 -14 -57 -13 -43 -52 -242 -64 -328 -4
-27 -10 -59 -12 -70 -3 -12 -7 -40 -9 -61 -2 -21 -7 -56 -10 -77 -11 -84 -15
-116 -20 -179 -3 -36 -8 -87 -11 -115 -9 -90 -17 -515 -9 -515 4 0 66 16 139
35 72 19 143 36 158 39 15 2 31 7 35 9 5 3 26 8 48 11 22 4 47 8 55 11 8 2 31
6 50 9 19 3 46 8 60 11 13 2 42 7 65 10 22 3 51 8 65 10 50 8 135 19 245 30
307 31 743 22 1055 -20 19 -3 53 -7 75 -10 22 -3 47 -7 55 -10 8 -2 33 -6 55
-10 62 -9 99 -15 115 -20 8 -2 31 -7 50 -10 114 -19 565 -147 584 -166 6 -5
17 -9 25 -9 17 0 144 -48 228 -86 28 -13 55 -24 58 -24 3 0 26 -9 51 -20 57
-26 71 -18 40 23 -13 18 -41 73 -61 122 -20 50 -40 99 -45 110 -4 11 -18 47
-30 80 -12 33 -26 69 -31 80 -5 11 -21 56 -35 100 -15 44 -36 105 -47 135 -20
57 -38 117 -88 285 -30 100 -35 119 -43 153 -11 47 -38 161 -46 192 -8 34 -23
114 -36 194 -3 21 -7 48 -10 59 -25 131 -24 689 1 812 3 11 7 36 10 55 14 102
51 220 95 310 27 57 88 162 121 212 21 33 39 64 39 69 0 5 3 9 8 9 4 0 20 21
37 48 16 26 35 54 42 62 6 8 38 51 71 95 154 210 402 417 642 536 202 100 335
143 575 184 31 5 231 18 275 18 27 0 249 -13 315 -18 129 -10 192 -16 205 -20
8 -3 42 -7 75 -11 33 -3 63 -8 66 -10 3 -2 21 -6 40 -9 222 -38 459 -156 594
-295 88 -91 140 -155 211 -265 21 -33 43 -63 49 -67 5 -4 6 -8 1 -8 -5 0 -2
-8 6 -17 18 -20 80 -141 131 -253 79 -174 100 -209 206 -345 57 -73 236 -255
310 -315 23 -19 55 -46 70 -60 43 -39 70 -60 151 -118 68 -50 226 -147 239
-147 4 -1 15 -6 27 -12 45 -25 177 -73 324 -118 85 -25 177 -58 204 -73 87
-47 172 -147 224 -262 49 -110 60 -138 75 -185 38 -118 50 -207 51 -380 0
-157 -7 -217 -39 -335 -24 -91 -134 -379 -152 -401 -7 -8 -13 -21 -13 -27 0
-11 -9 -29 -55 -104 -33 -56 -79 -111 -140 -173 -66 -66 -137 -125 -150 -125
-3 0 -22 -10 -43 -23 -49 -31 -230 -102 -238 -94 -7 7 -6 12 51 282 37 173 46
302 24 316 -15 9 -41 1 -121 -38 -99 -48 -195 -70 -292 -68 -78 3 -154 11
-186 20 -8 2 -31 7 -50 10 -19 3 -44 8 -55 11 -22 6 -124 55 -140 67 -5 4 -28
21 -50 38 -50 38 -118 95 -161 134 -257 238 -302 276 -429 359 -67 44 -178
102 -260 137 -57 24 -158 47 -239 55 -85 8 -128 -2 -166 -39 l-32 -31 79 -76
c44 -41 119 -111 167 -155 103 -94 142 -132 392 -371 263 -253 372 -365 602
-619 35 -38 174 -210 210 -260 80 -110 140 -272 186 -496 15 -74 18 -95 36
-244 8 -73 5 -455 -5 -515 -3 -19 -7 -53 -9 -75 -3 -22 -7 -47 -10 -55 -2 -8
-7 -35 -10 -60 -6 -56 -19 -120 -46 -230 -12 -47 -23 -92 -25 -100 -12 -56
-67 -235 -85 -275 -5 -11 -21 -49 -36 -85 -36 -89 -108 -234 -144 -295 -17
-27 -33 -58 -37 -67 -3 -10 -9 -18 -13 -18 -4 0 -13 -14 -20 -31 -7 -17 -18
-36 -24 -42 -6 -7 -24 -32 -41 -57 -33 -49 -87 -123 -107 -145 -7 -8 -17 -20
-23 -27 -90 -119 -274 -312 -427 -448 -62 -55 -266 -218 -298 -238 -14 -9 -43
-31 -66 -49 -23 -18 -46 -33 -52 -33 -6 0 -12 -3 -14 -8 -6 -15 -283 -190
-416 -263 -26 -14 -63 -35 -82 -46 -122 -69 -407 -206 -615 -294 -167 -71
-203 -88 -190 -89 6 0 39 -5 75 -10 36 -5 90 -12 120 -15 30 -3 73 -8 95 -10
22 -3 56 -7 76 -9 258 -31 835 -26 1139 9 104 12 125 14 195 25 39 6 86 13
105 15 19 3 46 7 60 10 40 8 65 13 101 19 19 3 93 19 164 36 72 17 141 33 155
36 87 18 487 150 508 166 6 6 12 8 12 5 0 -5 49 14 115 43 11 5 44 19 74 30
87 33 317 140 446 206 193 99 210 109 213 117 2 4 8 7 13 7 26 0 458 270 467
292 2 4 8 8 14 8 9 0 258 182 290 212 7 7 53 47 103 88 195 163 458 430 570
580 11 15 62 83 112 151 51 68 96 129 100 134 27 35 137 208 200 314 282 472
479 944 599 1431 20 80 38 156 40 170 3 14 7 32 9 40 3 8 7 32 11 54 3 21 8
48 10 60 2 11 7 37 10 56 2 19 9 58 14 85 9 49 14 86 26 195 3 30 7 71 10 90
26 223 26 811 0 1070 -2 19 -7 67 -11 105 -7 74 -40 302 -50 345 -3 14 -7 40
-10 58 -2 18 -6 36 -9 40 -2 4 -7 26 -11 49 -3 23 -19 97 -36 165 -17 68 -32
128 -33 133 -8 31 -30 105 -42 138 -8 20 -12 37 -9 37 3 0 -1 13 -10 30 -8 16
-15 31 -14 32 5 7 -100 295 -132 365 -10 24 -19 45 -19 47 0 4 -36 84 -106
234 -19 40 -34 76 -34 81 0 5 -3 11 -7 13 -5 2 -19 26 -33 53 -29 59 -105 195
-161 290 -79 134 -328 487 -405 575 -12 14 -52 61 -90 105 -120 141 -274 299
-428 440 -104 95 -79 73 -243 210 -28 23 -41 33 -98 75 -33 25 -62 47 -65 51
-11 13 -272 189 -280 189 -4 0 -10 4 -12 8 -5 12 -327 202 -342 202 -8 0 -16
4 -18 9 -3 9 -276 146 -378 190 -30 13 -90 39 -132 57 -43 18 -78 31 -78 27 0
-3 -10 1 -22 9 -13 8 -48 23 -78 33 -30 10 -59 21 -65 25 -5 5 -14 8 -18 8 -4
0 -27 7 -50 15 -75 27 -242 77 -258 77 -9 0 -19 3 -23 7 -3 4 -12 8 -19 9 -7
1 -32 7 -57 14 -25 7 -53 14 -62 16 -10 2 -26 6 -35 8 -72 17 -122 28 -143 32
-14 3 -32 7 -42 10 -35 10 -332 59 -418 69 -30 3 -68 7 -85 9 -16 2 -64 7
-105 11 -41 4 -93 9 -115 11 -22 2 -107 6 -190 10 -82 3 -161 6 -175 8 -14 1
-31 -3 -37 -8 -7 -4 -13 -5 -13 0 0 8 -297 14 -304 6z"/>
</g>
</svg>
